<svg width="182" height="44" viewBox="0 0 182 44" fill="none" xmlns="http://www.w3.org/2000/svg">
<path fill-rule="evenodd" clip-rule="evenodd" d="M11.6743 19.5782H5.96504L5.14494 22.233H0L6.13962 6.13967H11.655L17.7683 22.233H12.4904L11.6784 19.5812L11.6743 19.5782ZM10.6076 16.0951L8.82729 10.3157L7.03889 16.0951H10.6076ZM49.8142 22.233V6.13867H58.2122C59.7685 6.13867 60.958 6.2722 61.7809 6.53925C62.5927 6.79396 63.2945 7.30981 63.7743 8.00438C64.2818 8.71841 64.5294 9.59168 64.5294 10.6182C64.5294 11.5095 64.3359 12.2796 63.9489 12.9285C63.5633 13.5816 63.0142 14.1261 62.3543 14.5098C61.925 14.7642 61.3332 14.9775 60.5852 15.1457C61.1851 15.346 61.6215 15.5393 61.8945 15.7376C62.0772 15.8688 62.3462 16.1542 62.6994 16.5848C62.9662 16.8952 63.2014 17.2306 63.4018 17.5863L65.8509 22.233H60.1559L57.4672 17.3259C57.1262 16.689 56.8217 16.2774 56.5537 16.0861C56.1901 15.8392 55.7578 15.7097 55.3164 15.7156H54.8719V22.233H49.8142ZM54.8709 12.6822H57.0023C57.2297 12.6822 57.6783 12.6081 58.338 12.4618C58.6632 12.4024 58.9534 12.2234 59.15 11.9611C59.3602 11.6934 59.4725 11.3634 59.4687 11.0248C59.4687 10.504 59.3013 10.1034 58.9673 9.82301C58.6334 9.54261 58.0072 9.40341 57.0845 9.40341H54.8709V12.6842V12.6822ZM67.4637 6.14268H80.9488V9.57766H72.5244V12.1394H80.3398V15.4231H72.5244V18.5917H81.2025V22.233H67.4637V6.13867V6.14268ZM124.335 19.5822H118.626L117.805 22.233H112.661L118.8 6.14268H124.316L130.429 22.233H125.151L124.339 19.5822H124.335ZM123.268 16.0991L121.488 10.3157L119.7 16.0991H123.268ZM129.313 6.14268V10.1154H134.461V22.233H139.495V10.1154H144.643V6.13867L129.313 6.14268ZM146.925 6.14268H151.962V12.2185L157.24 6.13967H163.939L157.986 12.1844L164.214 22.233H158.014L154.574 15.6234L151.962 18.3113V22.233H146.928V6.13867L146.925 6.14268ZM175.915 19.5772H170.205L169.38 22.233H164.236L170.376 6.14268H175.892L182.005 22.233H176.727L175.915 19.5812V19.5772ZM174.848 16.0941L173.062 10.3157L171.275 16.0991L174.848 16.0941Z" fill="white"/>
<path fill-rule="evenodd" clip-rule="evenodd" d="M86.9329 14.1375C86.9337 12.0733 87.5421 10.0537 88.684 8.32403C89.826 6.59441 91.4524 5.22918 93.3657 4.39419C95.2791 3.55919 97.397 3.29036 99.4622 3.62035C101.527 3.95034 103.451 4.86494 105 6.25307L106.193 4.95719L105.175 4.04787L105.736 2.38546C105.239 2.05562 104.722 1.75661 104.187 1.49016L102.999 2.81408L100.378 1.97486L100.202 0.192279C99.6163 0.0920194 99.0251 0.0278024 98.4316 0L97.8835 1.71949L95.1431 2.00491L94.2296 0.409594C93.6588 0.551003 93.0974 0.727264 92.5488 0.937359L92.7619 2.77102L90.3767 4.13199L88.8543 3.02238C88.396 3.38032 87.9598 3.76489 87.548 4.17405L88.5132 5.78839L86.8954 7.99159L85.0176 7.57999C84.7488 8.08772 84.5116 8.61111 84.3072 9.14726L85.8763 10.2489L85.3039 12.9087L83.415 13.2893C83.3987 13.5697 83.3906 13.8521 83.3906 14.1365C83.3906 14.4279 83.3987 14.7173 83.417 15.0048L85.3059 15.3833L85.8804 18.0422L84.3143 19.1438C84.5187 19.6792 84.756 20.202 85.0247 20.709L86.8994 20.2984L88.5234 22.5016L87.5612 24.117C87.9735 24.5254 88.4104 24.909 88.8695 25.2656L90.392 24.155L92.7802 25.514L92.5691 27.3456C93.1187 27.5545 93.6807 27.7301 94.2519 27.8714L95.1654 26.2771L97.9059 26.5585L98.455 28.275C99.0492 28.2461 99.641 28.1812 100.227 28.0807L100.4 26.2981L103.019 25.4559L104.205 26.7768C104.741 26.509 105.259 26.208 105.756 25.8755L105.191 24.2141L107.238 22.3925L108.834 23.1105C109.217 22.65 109.571 22.1664 109.893 21.6624L108.711 20.3906L109.828 17.907L111.57 17.926C111.731 17.3502 111.855 16.7648 111.941 16.1735L110.351 15.4925V14.1375H108.544C108.544 16.9643 107.406 19.6753 105.38 21.6742C103.354 23.673 100.606 24.796 97.7414 24.796C94.8765 24.796 92.1288 23.673 90.103 21.6742C88.0771 19.6753 86.939 16.9643 86.939 14.1375H86.9329Z" fill="white"/>
<path fill-rule="evenodd" clip-rule="evenodd" d="M97.7345 4.89649C95.8817 4.89649 94.0706 5.43858 92.5302 6.45419C90.9897 7.4698 89.7891 8.91333 89.0801 10.6022C88.3712 12.2911 88.1857 14.1495 88.5473 15.9424C88.9088 17.7352 89.801 19.3821 91.1112 20.6746C92.4213 21.9671 94.0905 22.8473 95.9076 23.2038C97.7247 23.5603 99.6082 23.3772 101.32 22.6775C103.031 21.9778 104.494 20.793 105.524 19.273C106.553 17.7529 107.102 15.9659 107.102 14.1379H105.498C105.497 15.8946 104.885 17.5977 103.763 18.9618C102.641 20.3259 101.078 21.2681 99.3363 21.6306C97.5943 21.993 95.7788 21.7537 94.1943 20.9527C92.6098 20.1516 91.3524 18.8376 90.633 17.2307C89.9135 15.6239 89.7757 13.8219 90.2425 12.1267C90.7094 10.4315 91.7526 8.94609 93.1973 7.91947C94.642 6.89284 96.4005 6.38735 98.178 6.48771C99.9555 6.58806 101.644 7.28816 102.961 8.47068L104.036 7.30098C102.314 5.75082 100.066 4.89303 97.7345 4.89649Z" fill="white"/>
<path d="M106.077 14.1367H97.7344V15.8192H106.077V14.1367Z" fill="white"/>
<path fill-rule="evenodd" clip-rule="evenodd" d="M22.224 14.1375C22.2249 12.0733 22.8332 10.0537 23.9752 8.32403C25.1171 6.59441 26.7435 5.22918 28.6569 4.39419C30.5702 3.55919 32.6881 3.29036 34.7533 3.62035C36.8186 3.95034 38.7422 4.86494 40.2907 6.25307L41.4884 4.95719L40.4643 4.04787L41.0255 2.38546C40.5281 2.05583 40.0105 1.75683 39.4757 1.49016L38.2902 2.81408L35.6685 1.97486L35.4929 0.192279C34.9075 0.0919912 34.3163 0.027774 33.7228 0L33.1747 1.71949L30.4342 2.00491L29.5207 0.409594C28.9503 0.551144 28.3893 0.727403 27.8409 0.937359L28.0541 2.77102L25.6638 4.13199L24.1413 3.02238C23.6831 3.38032 23.2469 3.76489 22.8351 4.17405L23.8013 5.78839L22.1834 7.99159L20.3078 7.58199C20.0389 8.08972 19.8017 8.61311 19.5973 9.14927L21.1664 10.2509L20.594 12.9107L18.7051 13.2913C18.6875 13.5717 18.679 13.8541 18.6797 14.1385C18.6804 14.4229 18.6892 14.7123 18.7061 15.0068L20.596 15.3853L21.1705 18.0442L19.6044 19.1458C19.8088 19.6812 20.0461 20.204 20.3149 20.711L22.1895 20.3004L23.8135 22.5036L22.8503 24.119C23.2628 24.5272 23.6997 24.9108 24.1586 25.2676L25.6811 24.157L28.0683 25.516L27.8582 27.3477C28.4077 27.5566 28.9697 27.7322 29.541 27.8734L30.4545 26.2791L33.195 26.5605L33.7451 28.277C34.3389 28.2481 34.9304 28.1833 35.5162 28.0827L35.6898 26.3001L38.3094 25.4579L39.4949 26.7788C40.0302 26.5108 40.5479 26.2097 41.0448 25.8775L40.4805 24.2161L42.5277 22.3945L44.1243 23.1125C44.5073 22.6522 44.8606 22.1686 45.1819 21.6644L44.0004 20.3926L45.1169 17.909L46.8556 17.922C47.0174 17.3462 47.1418 16.7608 47.2281 16.1694L45.6376 15.4885V14.1375H43.8309C43.8309 16.9643 42.6928 19.6753 40.667 21.6742C38.6411 23.673 35.8935 24.796 33.0285 24.796C30.1635 24.796 27.4159 23.673 25.39 21.6742C23.3642 19.6753 22.2261 16.9643 22.2261 14.1375H22.224Z" fill="white"/>
<path fill-rule="evenodd" clip-rule="evenodd" d="M33.0235 4.89649C31.1708 4.89649 29.3597 5.43858 27.8192 6.45419C26.2788 7.4698 25.0782 8.91332 24.3692 10.6022C23.6602 12.2911 23.4748 14.1495 23.8363 15.9424C24.1978 17.7352 25.0901 19.3821 26.4002 20.6746C27.7104 21.9671 29.3795 22.8473 31.1967 23.2038C33.0138 23.5603 34.8973 23.3772 36.6089 22.6775C38.3205 21.9778 39.7834 20.793 40.8126 19.273C41.8418 17.7529 42.391 15.9659 42.3908 14.1379H40.7881C40.7875 15.8946 40.175 17.5977 39.0532 18.9618C37.9314 20.3259 36.3685 21.2681 34.6264 21.6306C32.8843 21.993 31.0689 21.7537 29.4844 20.9527C27.8999 20.1516 26.6425 18.8376 25.9231 17.2307C25.2036 15.6239 25.0657 13.8219 25.5326 12.1267C25.9995 10.4315 27.0427 8.94609 28.4874 7.91946C29.9321 6.89284 31.6905 6.38735 33.468 6.4877C35.2455 6.58806 36.9341 7.28815 38.2507 8.47067L39.3265 7.30098C37.6035 5.75117 35.3551 4.89346 33.0235 4.89649Z" fill="white"/>
<path d="M41.3656 14.1367H33.0234V15.8192H41.3656V14.1367Z" fill="white"/>
<path d="M175.906 42.7204V35.9258H181.09V42.7204H180.342V36.6344H176.654V42.7204H175.906Z" fill="white"/>
<path d="M168.891 42.7204V35.9258H174.074V42.7204H173.327V36.6344H169.638V42.7204H168.891Z" fill="white"/>
<path d="M162.789 42.7204V35.9258H163.536V38.8281H164.255L166.759 35.9258H167.72L164.915 39.1484L167.963 42.7204H167.002L164.264 39.5075H163.536V42.7204H162.789Z" fill="white"/>
<path d="M157.059 40.1967H159.894L158.496 36.7314H158.467L157.059 40.1967ZM155.234 42.7204L158.001 35.9258H158.962L161.718 42.7204H160.903L160.175 40.915H156.778L156.04 42.7204H155.234Z" fill="white"/>
<path d="M149.49 42.7204V36.6344H147.258V35.9258H152.47V36.6344H150.238V42.7204H149.49Z" fill="white"/>
<path d="M141 42.7204V35.9258H141.747V38.896H145.397V35.9258H146.145V42.7204H145.397V39.6143H141.747V42.7204H141Z" fill="white"/>
<path d="M136.277 42.0794C137.927 42.0794 138.781 40.7884 138.781 39.3227C138.781 37.857 137.927 36.5757 136.277 36.5757C134.627 36.5757 133.763 37.857 133.763 39.3227C133.763 40.7884 134.627 42.0794 136.277 42.0794ZM136.277 42.788C134.21 42.788 133.016 41.1961 133.016 39.3227C133.016 37.4493 134.21 35.8574 136.277 35.8574C138.335 35.8574 139.539 37.4493 139.539 39.3227C139.539 41.1961 138.335 42.788 136.277 42.788Z" fill="white"/>
<path d="M124.391 42.7204L125.051 35.9258H126.012L127.846 41.1286C127.904 41.2742 127.963 41.5168 128.011 41.7207H128.079C128.137 41.4974 128.196 41.2644 128.254 41.0994L130.088 35.9258H131.049L131.709 42.7204H130.962L130.535 37.7215C130.516 37.4497 130.506 37.1197 130.516 36.8382H130.457L128.38 42.7204H127.73L125.652 36.8382H125.594C125.594 37.1197 125.594 37.4497 125.565 37.7215L125.138 42.7204H124.391Z" fill="white"/>
<path d="M118.984 42.7204V35.9258H123.119V36.6344H119.732V38.8184H122.624V39.527H119.732V42.0119H123.119V42.7204H118.984Z" fill="white"/>
<path d="M112.875 42.7204V35.9258H115.428C116.719 35.9258 117.534 36.8576 117.534 38.0224C117.534 39.1872 116.719 40.1482 115.428 40.1482H113.622V42.7204H112.875ZM113.622 39.4299H115.428C116.292 39.4299 116.787 38.7892 116.787 38.0224C116.796 37.2556 116.292 36.6344 115.428 36.6344H113.622V39.4299Z" fill="white"/>
<path d="M106.048 35.5755C105.417 35.5755 104.942 35.3522 104.534 34.9251L104.922 34.498C105.631 35.1193 106.446 35.1387 107.164 34.498L107.553 34.9251C107.145 35.3522 106.669 35.5755 106.048 35.5755ZM103.359 42.7196V35.9249H104.116V41.6227L107.854 35.9249H108.601V42.7196H107.854V37.0218L104.116 42.7196H103.359Z" fill="white"/>
<path d="M95.1641 42.7204V35.9258H95.9115V38.7213H97.7266C99.0176 38.7213 99.833 39.5755 99.833 40.7403C99.833 41.9051 99.0176 42.7204 97.7266 42.7204H95.1641ZM95.9115 42.0119H97.7266C98.5905 42.0119 99.0856 41.5071 99.0856 40.7403C99.0856 39.9735 98.5808 39.4299 97.7266 39.4299H95.9115V42.0119ZM100.765 42.7204V35.9258H101.512V42.7204H100.765Z" fill="white"/>
<path d="M88.1797 42.7204V35.9258H88.9271V38.896H92.5768V35.9258H93.3242V42.7204H92.5768V39.6143H88.9271V42.7204H88.1797Z" fill="white"/>
<path d="M82.2031 42.7204V35.9258H82.9505V38.7213H84.7657C86.0567 38.7213 86.8623 39.5755 86.872 40.7403C86.872 41.9051 86.0567 42.7204 84.7657 42.7204H82.2031ZM82.9505 42.0119H84.7657C85.6296 42.0119 86.1246 41.5071 86.1246 40.7403C86.1246 39.9735 85.6296 39.4299 84.7657 39.4299H82.9505V42.0119Z" fill="white"/>
<path d="M74.8826 42.7399L74.8438 42.0119C75.63 42.0119 75.863 41.5945 76.0086 40.9053C76.3289 39.4008 76.4162 37.4983 76.5327 35.9258H80.3571V42.7204H79.6097V36.6538H77.2316C77.1539 37.5662 76.9404 40.0996 76.7365 41.0509C76.5133 42.0895 76.0474 42.7399 74.8826 42.7399Z" fill="white"/>
<path d="M70.028 40.1967H72.8623L71.4646 36.7314H71.4354L70.028 40.1967ZM68.2031 42.7204L70.9695 35.9258H71.9305L74.6872 42.7204H73.8718L73.1438 40.915H69.7465L69.0088 42.7204H68.2031Z" fill="white"/>
<path d="M62 42.7204V35.9258H62.7474V38.896H66.3971V35.9258H67.1445V42.7204H66.3971V39.6143H62.7474V42.7204H62Z" fill="white"/>
<path d="M57.2771 42.0794C58.9272 42.0794 59.7814 40.7884 59.7814 39.3227C59.7814 37.857 58.9272 36.5757 57.2771 36.5757C55.6269 36.5757 54.763 37.857 54.763 39.3227C54.763 40.7884 55.6269 42.0794 57.2771 42.0794ZM57.2771 42.788C55.2095 42.788 54.0156 41.1961 54.0156 39.3227C54.0156 37.4493 55.2095 35.8574 57.2771 35.8574C59.3349 35.8574 60.5385 37.4493 60.5385 39.3227C60.5385 41.1961 59.3349 42.788 57.2771 42.788Z" fill="white"/>
<path d="M47.3125 42.7204V35.9258H48.0599V41.6236L51.8067 35.9258H52.5541V42.7204H51.8067V37.0226L48.0599 42.7204H47.3125Z" fill="white"/>
<path d="M44.3284 42.7783C42.1833 42.7686 40.8438 41.2932 40.8438 39.3228C40.8438 37.3523 42.1833 35.8769 44.3284 35.8672C44.9011 35.8672 45.5321 35.9448 46.0077 36.1001L45.8524 36.799C45.3671 36.6437 44.8526 36.5758 44.3479 36.5758C42.6201 36.5855 41.5912 37.7212 41.5912 39.3228C41.5912 40.9244 42.6201 42.06 44.3479 42.0697C44.8526 42.0795 45.3671 42.0018 45.8524 41.8465L46.0077 42.5454C45.5321 42.7007 44.9011 42.7783 44.3284 42.7783Z" fill="white"/>
<path d="M38.6253 42.7783C36.4801 42.7686 35.1406 41.2932 35.1406 39.3228C35.1406 37.3523 36.4801 35.8769 38.6253 35.8672C39.198 35.8672 39.8289 35.9448 40.3046 36.1001L40.1493 36.799C39.6639 36.6437 39.1495 36.5758 38.6447 36.5758C36.9169 36.5855 35.888 37.7212 35.888 39.3228C35.888 40.9244 36.9169 42.06 38.6447 42.0697C39.1495 42.0795 39.6639 42.0018 40.1493 41.8465L40.3046 42.5454C39.8289 42.7007 39.198 42.7783 38.6253 42.7783Z" fill="white"/>
<path d="M29.9844 42.7204V35.9258H34.1194V36.6344H30.7318V38.8184H33.6244V39.527H30.7318V42.0119H34.1194V42.7204H29.9844Z" fill="white"/>
<path d="M24.5664 42.0401V36.5947C23.1104 36.6432 22.0815 37.7983 22.0815 39.3222C22.0815 40.8559 23.1395 41.9722 24.5664 42.0401ZM25.3138 42.0401C26.7407 41.9722 27.789 40.8559 27.789 39.3222C27.789 37.7983 26.7698 36.6432 25.3138 36.5947V42.0401ZM24.5664 43.5058V42.7099C22.7512 42.5837 21.3438 41.2733 21.3438 39.3222C21.3438 37.3712 22.7512 36.0414 24.5664 35.9249V35.1387H25.3138V35.9249C27.1289 36.0414 28.5364 37.3712 28.5364 39.3222C28.5364 41.2733 27.1289 42.5837 25.3138 42.7099V43.5058H24.5664Z" fill="white"/>
<path d="M17.0114 42.0794C18.6616 42.0794 19.5158 40.7884 19.5158 39.3227C19.5158 37.857 18.6616 36.5757 17.0114 36.5757C15.3613 36.5757 14.4974 37.857 14.4974 39.3227C14.4974 40.7884 15.3613 42.0794 17.0114 42.0794ZM17.0114 42.788C14.9439 42.788 13.75 41.1961 13.75 39.3227C13.75 37.4493 14.9439 35.8574 17.0114 35.8574C19.0693 35.8574 20.2729 37.4493 20.2729 39.3227C20.2729 41.1961 19.0693 42.788 17.0114 42.788Z" fill="white"/>
<path d="M8.02344 42.7204V35.9258H10.5763C11.8673 35.9258 12.6826 36.8576 12.6826 38.0224C12.6826 39.1872 11.8673 40.1482 10.5763 40.1482H8.77085V42.7204H8.02344ZM8.77085 39.4299H10.5763C11.4402 39.4299 11.9352 38.7892 11.9352 38.0224C11.9449 37.2556 11.4402 36.6344 10.5763 36.6344H8.77085V39.4299Z" fill="white"/>
<path d="M1 42.7204V35.9258H6.18336V42.7204H5.43595V36.6344H1.74741V42.7204H1Z" fill="white"/>
</svg>
